<svg width="141" height="43" viewBox="0 0 141 43" fill="none" xmlns="http://www.w3.org/2000/svg">
<path d="M52.462 26.1415C50.734 26.1415 49.384 25.7215 48.412 24.8815C47.44 24.0295 46.924 22.8235 46.864 21.2635C46.852 20.9155 46.846 20.3635 46.846 19.6075C46.846 18.8515 46.852 18.2995 46.864 17.9515C46.924 16.4275 47.446 15.2515 48.43 14.4235C49.426 13.5955 50.77 13.1815 52.462 13.1815C53.602 13.1815 54.592 13.3675 55.432 13.7395C56.284 14.1115 56.932 14.5855 57.376 15.1615C57.832 15.7375 58.072 16.3315 58.096 16.9435C58.096 17.0515 58.054 17.1415 57.97 17.2135C57.898 17.2855 57.808 17.3215 57.7 17.3215H55.072C54.952 17.3215 54.856 17.3035 54.784 17.2675C54.712 17.2315 54.652 17.1655 54.604 17.0695C54.448 16.7215 54.202 16.4215 53.866 16.1695C53.53 15.9055 53.062 15.7735 52.462 15.7735C51.034 15.7735 50.284 16.5295 50.212 18.0415C50.2 18.3775 50.194 18.8995 50.194 19.6075C50.194 20.3035 50.2 20.8255 50.212 21.1735C50.284 22.7575 51.052 23.5495 52.516 23.5495C53.224 23.5495 53.788 23.3695 54.208 23.0095C54.64 22.6375 54.856 22.0735 54.856 21.3175V20.9755H53.164C53.032 20.9755 52.924 20.9335 52.84 20.8495C52.756 20.7535 52.714 20.6395 52.714 20.5075V19.1755C52.714 19.0435 52.756 18.9355 52.84 18.8515C52.924 18.7555 53.032 18.7075 53.164 18.7075H57.7C57.832 18.7075 57.94 18.7555 58.024 18.8515C58.108 18.9355 58.15 19.0435 58.15 19.1755V21.2275C58.15 22.2475 57.916 23.1295 57.448 23.8735C56.98 24.6055 56.314 25.1695 55.45 25.5655C54.598 25.9495 53.602 26.1415 52.462 26.1415ZM64.4451 26.1415C62.9571 26.1415 61.8111 25.7875 61.0071 25.0795C60.2031 24.3715 59.7651 23.3755 59.6931 22.0915C59.6811 21.9355 59.6751 21.6655 59.6751 21.2815C59.6751 20.8975 59.6811 20.6275 59.6931 20.4715C59.7651 19.1995 60.2151 18.2095 61.0431 17.5015C61.8711 16.7815 63.0051 16.4215 64.4451 16.4215C65.8971 16.4215 67.0371 16.7815 67.8651 17.5015C68.6931 18.2095 69.1431 19.1995 69.2151 20.4715C69.2271 20.6275 69.2331 20.8975 69.2331 21.2815C69.2331 21.6655 69.2271 21.9355 69.2151 22.0915C69.1431 23.3755 68.7051 24.3715 67.9011 25.0795C67.0971 25.7875 65.9451 26.1415 64.4451 26.1415ZM64.4451 23.9455C64.9731 23.9455 65.3631 23.7895 65.6151 23.4775C65.8671 23.1535 66.0111 22.6615 66.0471 22.0015C66.0591 21.8815 66.0651 21.6415 66.0651 21.2815C66.0651 20.9215 66.0591 20.6815 66.0471 20.5615C66.0111 19.9135 65.8611 19.4275 65.5971 19.1035C65.3451 18.7795 64.9611 18.6175 64.4451 18.6175C63.4491 18.6175 62.9211 19.2655 62.8611 20.5615L62.8431 21.2815L62.8611 22.0015C62.8851 22.6615 63.0231 23.1535 63.2751 23.4775C63.5391 23.7895 63.9291 23.9455 64.4451 23.9455Z" fill="black"/>
<path d="M76.385 26.1415C74.669 26.1415 73.325 25.7275 72.353 24.8995C71.393 24.0595 70.883 22.8475 70.823 21.2635C70.811 20.9395 70.805 20.4115 70.805 19.6795C70.805 18.9355 70.811 18.3955 70.823 18.0595C70.883 16.4995 71.405 15.2995 72.389 14.4595C73.373 13.6075 74.705 13.1815 76.385 13.1815C77.441 13.1815 78.389 13.3615 79.229 13.7215C80.069 14.0695 80.729 14.5735 81.209 15.2335C81.701 15.8815 81.953 16.6435 81.965 17.5195V17.5555C81.965 17.6515 81.923 17.7355 81.839 17.8075C81.767 17.8675 81.683 17.8975 81.587 17.8975H79.157C79.001 17.8975 78.881 17.8675 78.797 17.8075C78.713 17.7355 78.641 17.6095 78.581 17.4295C78.413 16.8175 78.149 16.3915 77.789 16.1515C77.429 15.8995 76.955 15.7735 76.367 15.7735C74.951 15.7735 74.219 16.5655 74.171 18.1495C74.159 18.4735 74.153 18.9715 74.153 19.6435C74.153 20.3155 74.159 20.8255 74.171 21.1735C74.219 22.7575 74.951 23.5495 76.367 23.5495C76.955 23.5495 77.435 23.4235 77.807 23.1715C78.179 22.9075 78.437 22.4815 78.581 21.8935C78.629 21.7135 78.695 21.5935 78.779 21.5335C78.863 21.4615 78.989 21.4255 79.157 21.4255H81.587C81.695 21.4255 81.785 21.4615 81.857 21.5335C81.941 21.6055 81.977 21.6955 81.965 21.8035C81.953 22.6795 81.701 23.4475 81.209 24.1075C80.729 24.7555 80.069 25.2595 79.229 25.6195C78.389 25.9675 77.441 26.1415 76.385 26.1415ZM88.0877 26.1415C86.5997 26.1415 85.4537 25.7875 84.6497 25.0795C83.8457 24.3715 83.4077 23.3755 83.3357 22.0915C83.3237 21.9355 83.3177 21.6655 83.3177 21.2815C83.3177 20.8975 83.3237 20.6275 83.3357 20.4715C83.4077 19.1995 83.8577 18.2095 84.6857 17.5015C85.5137 16.7815 86.6477 16.4215 88.0877 16.4215C89.5397 16.4215 90.6797 16.7815 91.5077 17.5015C92.3357 18.2095 92.7857 19.1995 92.8577 20.4715C92.8697 20.6275 92.8757 20.8975 92.8757 21.2815C92.8757 21.6655 92.8697 21.9355 92.8577 22.0915C92.7857 23.3755 92.3477 24.3715 91.5437 25.0795C90.7397 25.7875 89.5877 26.1415 88.0877 26.1415ZM88.0877 23.9455C88.6157 23.9455 89.0057 23.7895 89.2577 23.4775C89.5097 23.1535 89.6537 22.6615 89.6897 22.0015C89.7017 21.8815 89.7077 21.6415 89.7077 21.2815C89.7077 20.9215 89.7017 20.6815 89.6897 20.5615C89.6537 19.9135 89.5037 19.4275 89.2397 19.1035C88.9877 18.7795 88.6037 18.6175 88.0877 18.6175C87.0917 18.6175 86.5637 19.2655 86.5037 20.5615L86.4857 21.2815L86.5037 22.0015C86.5277 22.6615 86.6657 23.1535 86.9177 23.4775C87.1817 23.7895 87.5717 23.9455 88.0877 23.9455ZM95.1136 25.9615C94.9816 25.9615 94.8736 25.9195 94.7896 25.8355C94.7056 25.7515 94.6636 25.6435 94.6636 25.5115V17.0515C94.6636 16.9195 94.7056 16.8115 94.7896 16.7275C94.8736 16.6435 94.9816 16.6015 95.1136 16.6015H97.1836C97.3156 16.6015 97.4236 16.6495 97.5076 16.7455C97.6036 16.8295 97.6516 16.9315 97.6516 17.0515V17.7715C98.3116 16.9915 99.1996 16.6015 100.316 16.6015H101.108C101.24 16.6015 101.348 16.6435 101.432 16.7275C101.516 16.8115 101.558 16.9195 101.558 17.0515V18.9055C101.558 19.0255 101.516 19.1335 101.432 19.2295C101.348 19.3135 101.24 19.3555 101.108 19.3555H99.3616C98.8696 19.3555 98.4856 19.4935 98.2096 19.7695C97.9456 20.0335 97.8136 20.4115 97.8136 20.9035V25.5115C97.8136 25.6435 97.7656 25.7515 97.6696 25.8355C97.5856 25.9195 97.4776 25.9615 97.3456 25.9615H95.1136ZM107.178 26.1415C105.69 26.1415 104.544 25.7875 103.74 25.0795C102.936 24.3715 102.498 23.3755 102.426 22.0915C102.414 21.9355 102.408 21.6655 102.408 21.2815C102.408 20.8975 102.414 20.6275 102.426 20.4715C102.498 19.1995 102.948 18.2095 103.776 17.5015C104.604 16.7815 105.738 16.4215 107.178 16.4215C108.63 16.4215 109.77 16.7815 110.598 17.5015C111.426 18.2095 111.876 19.1995 111.948 20.4715C111.96 20.6275 111.966 20.8975 111.966 21.2815C111.966 21.6655 111.96 21.9355 111.948 22.0915C111.876 23.3755 111.438 24.3715 110.634 25.0795C109.83 25.7875 108.678 26.1415 107.178 26.1415ZM107.178 23.9455C107.706 23.9455 108.096 23.7895 108.348 23.4775C108.6 23.1535 108.744 22.6615 108.78 22.0015C108.792 21.8815 108.798 21.6415 108.798 21.2815C108.798 20.9215 108.792 20.6815 108.78 20.5615C108.744 19.9135 108.594 19.4275 108.33 19.1035C108.078 18.7795 107.694 18.6175 107.178 18.6175C106.182 18.6175 105.654 19.2655 105.594 20.5615L105.576 21.2815L105.594 22.0015C105.618 22.6615 105.756 23.1535 106.008 23.4775C106.272 23.7895 106.662 23.9455 107.178 23.9455ZM114.203 25.9615C114.071 25.9615 113.963 25.9195 113.879 25.8355C113.795 25.7515 113.753 25.6435 113.753 25.5115V17.0515C113.753 16.9195 113.795 16.8115 113.879 16.7275C113.963 16.6435 114.071 16.6015 114.203 16.6015H116.273C116.405 16.6015 116.513 16.6435 116.597 16.7275C116.693 16.8115 116.741 16.9195 116.741 17.0515V17.7355C117.065 17.3395 117.479 17.0215 117.983 16.7815C118.499 16.5415 119.081 16.4215 119.729 16.4215C120.785 16.4215 121.643 16.7815 122.303 17.5015C122.963 18.2095 123.293 19.2055 123.293 20.4895V25.5115C123.293 25.6315 123.251 25.7395 123.167 25.8355C123.083 25.9195 122.975 25.9615 122.843 25.9615H120.575C120.455 25.9615 120.347 25.9195 120.251 25.8355C120.167 25.7395 120.125 25.6315 120.125 25.5115V20.5975C120.125 20.0335 119.987 19.6015 119.711 19.3015C119.435 18.9895 119.039 18.8335 118.523 18.8335C118.019 18.8335 117.623 18.9895 117.335 19.3015C117.047 19.6015 116.903 20.0335 116.903 20.5975V25.5115C116.903 25.6315 116.861 25.7395 116.777 25.8355C116.693 25.9195 116.585 25.9615 116.453 25.9615H114.203ZM128.128 26.1415C127.492 26.1415 126.91 26.0215 126.382 25.7815C125.866 25.5295 125.458 25.1935 125.158 24.7735C124.87 24.3415 124.726 23.8675 124.726 23.3515C124.726 22.5235 125.062 21.8575 125.734 21.3535C126.418 20.8495 127.354 20.5015 128.542 20.3095L130.792 19.9675V19.7155C130.792 19.2595 130.696 18.9235 130.504 18.7075C130.312 18.4915 129.988 18.3835 129.532 18.3835C129.256 18.3835 129.028 18.4315 128.848 18.5275C128.668 18.6235 128.482 18.7555 128.29 18.9235C128.122 19.0675 127.996 19.1635 127.912 19.2115C127.876 19.3075 127.81 19.3555 127.714 19.3555H125.752C125.632 19.3555 125.53 19.3195 125.446 19.2475C125.374 19.1635 125.344 19.0675 125.356 18.9595C125.368 18.6355 125.524 18.2755 125.824 17.8795C126.136 17.4835 126.604 17.1415 127.228 16.8535C127.864 16.5655 128.644 16.4215 129.568 16.4215C131.044 16.4215 132.136 16.7515 132.844 17.4115C133.552 18.0595 133.906 18.9355 133.906 20.0395V25.5115C133.906 25.6315 133.864 25.7395 133.78 25.8355C133.696 25.9195 133.588 25.9615 133.456 25.9615H131.368C131.248 25.9615 131.14 25.9195 131.044 25.8355C130.96 25.7395 130.918 25.6315 130.918 25.5115V24.8815C130.654 25.2535 130.282 25.5595 129.802 25.7995C129.334 26.0275 128.776 26.1415 128.128 26.1415ZM128.974 24.0895C129.526 24.0895 129.97 23.9095 130.306 23.5495C130.654 23.1895 130.828 22.6615 130.828 21.9655V21.7135L129.298 21.9835C128.218 22.1755 127.678 22.5535 127.678 23.1175C127.678 23.4175 127.804 23.6575 128.056 23.8375C128.308 24.0055 128.614 24.0895 128.974 24.0895Z" fill="#EC5863"/>
<path d="M15.4201 7.18593C16.8673 6.64254 18.4372 7.31194 18.9258 8.6804C19.2998 9.72812 18.9311 10.881 18.0895 11.6083L18.5175 12.8547L19.2172 13.6864C19.3769 13.8768 19.6225 13.9647 19.8706 13.9291C20.5396 13.8328 21.2031 13.8176 21.8516 13.876C22.0714 13.896 22.2916 13.8175 22.4522 13.6571L22.9754 13.1367L23.3735 11.9962C23.058 11.5474 22.9585 10.9472 23.1593 10.3715C23.5 9.39577 24.5696 8.87535 25.5071 9.25553C26.3147 9.58262 26.742 10.5025 26.4898 11.3702C26.3296 11.9228 25.9401 12.3416 25.4656 12.554L25.0249 13.8178L25.1094 14.5082C25.1385 14.7455 25.2729 14.9509 25.472 15.0719C26.1417 15.4809 26.7547 15.9845 27.2906 16.5698C27.4706 16.7669 27.7427 16.8478 28.0065 16.7888L29.364 16.4858L30.9067 15.5886C30.9272 14.8174 31.3412 14.0648 32.0549 13.6497C33.134 13.0225 34.4813 13.4067 35.0329 14.5104C35.5307 15.5062 35.1873 16.7753 34.2457 17.4108C33.5104 17.9061 32.6231 17.9045 31.9447 17.505L30.3928 18.4069L29.5189 19.3579C29.2843 19.613 29.1964 19.9695 29.279 20.3002C29.2794 20.3022 29.2798 20.3035 29.2803 20.3054C29.4213 20.8754 29.5033 21.4493 29.5317 22.0192C29.5481 22.3586 29.7307 22.661 30.0217 22.8182L31.1322 23.4177L33.3464 23.8073C33.7437 23.4505 34.2858 23.2716 34.8353 23.3678C35.8204 23.5414 36.4403 24.5332 36.1706 25.5477C35.9387 26.4165 35.0986 27.0072 34.2317 26.9095C33.6405 26.8429 33.1682 26.4863 32.9194 26L30.6908 25.6082L29.3091 25.8051C29.0544 25.842 28.8298 26.0091 28.7222 26.2497C28.2943 27.1998 27.7109 28.077 26.9958 28.8381C26.8181 29.0272 26.7482 29.2946 26.8075 29.5427L27.1281 30.8936L27.952 32.2354C28.885 32.0757 29.8466 32.4698 30.3698 33.3221C31.0731 34.467 30.7205 36.0061 29.5843 36.7735C28.4487 37.5407 26.9252 37.2432 26.2076 36.1129C25.705 35.3217 25.7155 34.3342 26.1462 33.5432L25.2715 32.1192L24.1824 31.2098C24.0211 31.0744 23.7989 31.0418 23.5981 31.1181C23.3753 31.203 23.1483 31.2793 22.9163 31.3466C21.6558 31.7123 20.3897 31.7793 19.1896 31.5912C19.0137 31.5641 18.8324 31.6187 18.6955 31.7408L18.0943 32.2783L17.6354 33.3965C17.9259 33.8639 17.9922 34.4695 17.7609 35.0337C17.3679 35.9911 16.2737 36.451 15.3604 36.0177C14.5739 35.6447 14.1978 34.7002 14.4962 33.8463C14.6863 33.3025 15.0964 32.9056 15.581 32.7204L16.0893 31.4809L16.0163 30.4018C15.145 29.8537 14.3733 29.144 13.7465 28.3002L12.2381 28.4794L10.817 29.2177C10.8104 30.1845 10.3089 31.1134 9.44758 31.5741C8.23059 32.2245 6.75736 31.6946 6.15744 30.3899C5.55768 29.0858 6.0572 27.5012 7.27419 26.8508C8.18492 26.3639 9.23853 26.5379 9.96272 27.2034L11.303 26.5067L12.242 25.4782C12.3033 25.4108 12.3272 25.3173 12.3057 25.2307L12.3054 25.2294C11.9055 23.6138 11.9758 21.9722 12.4281 20.4565C12.4524 20.3734 12.4366 20.2844 12.3833 20.2196L11.6033 19.2617L9.90364 18.3723C9.42789 18.5934 8.868 18.6029 8.37992 18.3472C7.49818 17.8852 7.19636 16.7439 7.74111 15.8444C8.21934 15.0557 9.21566 14.7416 10.0142 15.1271C10.5312 15.3765 10.8595 15.8545 10.9501 16.3882L12.6498 17.2776L13.8683 17.373C13.9529 17.3799 14.0361 17.3419 14.091 17.2736C14.6559 16.5644 15.3249 15.9354 16.0818 15.4156C16.2895 15.2723 16.4209 15.0386 16.4283 14.7866L16.4593 13.6535L16.0028 12.3253C14.9669 12.2676 14.0392 11.6423 13.6838 10.6471C13.1952 9.27865 13.9727 7.72866 15.4201 7.18593Z" fill="#EC5863"/>
<path d="M27.0778 20.9496C26.2095 17.4418 22.6925 15.4142 19.2222 16.4208C15.7519 17.4275 13.6425 21.0871 14.5108 24.5949C15.379 28.1027 18.8961 30.1304 22.3664 29.1237C25.8366 28.1171 27.946 24.4574 27.0778 20.9496Z" fill="#F58A97"/>
<path d="M21.9333 27.2321C18.8165 28.1199 15.6448 26.515 14.4176 23.5898C14.45 23.9196 14.5072 24.2506 14.5903 24.5804C15.4765 28.0963 18.9829 30.1522 22.4223 29.1725C25.8618 28.1927 27.9315 24.5485 27.0453 21.0326C26.9622 20.7027 26.856 20.3857 26.7289 20.0829C27.0419 23.2684 25.05 26.3443 21.9333 27.2321Z" fill="#F07281"/>
<path d="M12.3455 36.7365C12.0963 35.7354 11.0948 35.1544 10.1085 35.4389C9.12221 35.7233 8.5247 36.7655 8.77391 37.7666C9.02312 38.7677 10.0247 39.3487 11.011 39.0643C11.9972 38.7798 12.5947 37.7376 12.3455 36.7365Z" fill="#EB5569"/>
<path d="M35.1248 30.929C34.9602 30.2677 34.2986 29.884 33.6472 30.0719C32.9957 30.2598 32.6011 30.9481 32.7657 31.6094C32.9303 32.2707 33.5918 32.6544 34.2433 32.4665C34.8947 32.2786 35.2894 31.5902 35.1248 30.929Z" fill="#EB5569"/>
<path d="M31.8638 7.97044C31.6213 6.99646 30.6469 6.43124 29.6874 6.70799C28.7279 6.98474 28.1466 7.99865 28.389 8.97263C28.6315 9.94661 29.6059 10.5118 30.5654 10.2351C31.5249 9.95833 32.1062 8.94442 31.8638 7.97044Z" fill="#EB5569"/>
<path d="M21.215 24.7604C20.9889 23.8523 20.0805 23.3254 19.1859 23.5834C18.2913 23.8414 17.7494 24.7867 17.9754 25.6947C18.2015 26.6028 19.1099 27.1297 20.0045 26.8717C20.8991 26.6137 21.441 25.6684 21.215 24.7604Z" fill="#EB5569"/>
<path d="M25.3241 22.187C25.1702 21.5689 24.5519 21.2103 23.943 21.3859C23.3341 21.5615 22.9652 22.2049 23.1191 22.823C23.2729 23.441 23.8912 23.7997 24.5001 23.6241C25.109 23.4485 25.4779 22.8051 25.3241 22.187Z" fill="#EB5569"/>
<path d="M20.969 19.5885C20.8398 19.0695 20.3205 18.7683 19.8092 18.9158C19.2979 19.0633 18.9882 19.6035 19.1174 20.1226C19.2465 20.6416 19.7658 20.9427 20.2771 20.7953C20.7884 20.6478 21.0981 20.1075 20.969 19.5885Z" fill="#EB5569"/>
</svg>
